<?xml version="1.0" standalone="no"?><!DOCTYPE svg PUBLIC "-//W3C//DTD SVG 1.1//EN" "http://www.w3.org/Graphics/SVG/1.1/DTD/svg11.dtd">
<svg class="icon" viewBox="0 0 1024 1024" version="1.1" xmlns="http://www.w3.org/2000/svg" width="16" height="16">
    <path d="M899.8 565.4l-75.1-53c2-18.7 2-37.5 0-56.3l75.1-53c13.7-9.6 17.5-28.3 8.6-43l-59.8-99c-8.9-14.7-27.7-19.8-43.1-11.8L735 289c-16-13.6-33.3-25.5-51.7-35.3l-18.4-89c-3.1-16.5-17.5-28.7-34.4-28.7h-119c-16.9 0-31.4 12.2-34.4 28.7l-18.4 89c-18.4 9.8-35.7 21.7-51.7 35.3L336.5 250c-15.4-8-34.3-2.9-43.1 11.8l-59.8 99c-8.9 14.7-5.1 33.4 8.6 43l75.1 53c-2 18.7-2 37.5 0 56.3l-75.1 53c-13.7 9.6-17.5 28.3-8.6 43l59.8 99c8.9 14.7 27.7 19.8 43.1 11.8l70.5-39.7c16 13.6 33.3 25.5 51.7 35.3l18.4 89c3.1 16.5 17.5 28.7 34.4 28.7h119c16.9 0 31.4-12.2 34.4-28.7l18.4-89c18.4-9.8 35.7-21.7 51.7-35.3l70.5 39.7c15.4 8 34.3 2.9 43.1-11.8l59.8-99c8.9-14.7 5.1-33.4-8.6-43z M512 662c-82.8 0-150-67.2-150-150s67.2-150 150-150 150 67.2 150 150-67.2 150-150 150z" fill="#f7971d"></path>
</svg>
