<?xml version="1.0" standalone="no"?><!DOCTYPE svg PUBLIC "-//W3C//DTD SVG 1.1//EN" "http://www.w3.org/Graphics/SVG/1.1/DTD/svg11.dtd">
<svg class="icon" viewBox="0 0 1024 1024" version="1.1" xmlns="http://www.w3.org/2000/svg" width="16" height="16">
    <path d="M884 140l-26.3-26.3c-15.6-15.6-40.9-15.6-56.6 0L242.4 672.4c-15.6 15.6-15.6 40.9 0 56.6L268.7 755.3c15.6 15.6 40.9 15.6 56.6 0L884 196.6c15.6-15.6 15.6-40.9 0-56.6z M168 856c-26.5 0-48 21.5-48 48s21.5 48 48 48 48-21.5 48-48-21.5-48-48-48z M264 200c-35.3 0-64 28.7-64 64s28.7 64 64 64 64-28.7 64-64-28.7-64-64-64z M776 728c-48.6 0-88 39.4-88 88s39.4 88 88 88 88-39.4 88-88-39.4-88-88-88z" fill="#f7971d"></path>
</svg>
