<?xml version="1.0" standalone="no"?><!DOCTYPE svg PUBLIC "-//W3C//DTD SVG 1.1//EN" "http://www.w3.org/Graphics/SVG/1.1/DTD/svg11.dtd">
<svg class="icon" viewBox="0 0 1024 1024" version="1.1" xmlns="http://www.w3.org/2000/svg" width="16" height="16">
    <path d="M810.6 213.4a128 128 0 1 0 0 256 128 128 0 0 0 0-256z m-618 190L466 612.3a128.2 128.2 0 0 0-38 78.4l-214.3-39A128.1 128.1 0 1 0 192.6 403.4z m618 360L535 636A128.1 128.1 0 0 0 512 853.4a128.1 128.1 0 0 0 298.6-80z M551.4 397l214.3-157.1a128.2 128.2 0 0 0 35 34.4L586.4 431.4a127.7 127.7 0 0 0-35-34.4z" fill="#ffffff"></path>
</svg>
