<?xml version="1.0" standalone="no"?><!DOCTYPE svg PUBLIC "-//W3C//DTD SVG 1.1//EN" "http://www.w3.org/Graphics/SVG/1.1/DTD/svg11.dtd">
<svg class="icon" viewBox="0 0 1024 1024" version="1.1" xmlns="http://www.w3.org/2000/svg" width="16" height="16">
    <path d="M810.7 469.3H768V341.3c0-23.6-19.1-42.7-42.7-42.7s-42.7 19.1-42.7 42.7v128H341.3V341.3c0-23.6-19.1-42.7-42.7-42.7s-42.7 19.1-42.7 42.7v128h-42.6C166.4 469.3 128 507.7 128 554.7v170.7C128 772.3 166.4 810.7 213.3 810.7h597.3C857.6 810.7 896 772.3 896 725.3V554.7C896 507.7 857.6 469.3 810.7 469.3zM298.7 682.7h-42.7v-42.7h42.7v42.7zm128 0h-42.7v-42.7h42.7v42.7zm128 0h-42.7v-42.7h42.7v42.7zm128 0h-42.7v-42.7h42.7v42.7z" fill="#ffffff"></path>
</svg>
