<?xml version="1.0" standalone="no"?><!DOCTYPE svg PUBLIC "-//W3C//DTD SVG 1.1//EN" "http://www.w3.org/Graphics/SVG/1.1/DTD/svg11.dtd">
<svg class="icon" viewBox="0 0 1024 1024" version="1.1" xmlns="http://www.w3.org/2000/svg" width="16" height="16">
    <path d="M512 85.3C276.4 85.3 85.3 276.4 85.3 512S276.4 938.6 512 938.6 938.6 747.6 938.6 512 747.6 85.3 512 85.3z M826.6 469.3H657.4C644.2 360 600.4 260.6 541 184c125.1 40 223.3 147.2 263.7 285.3h21.9zM512 172.9c48.8 69.8 84.8 160.7 99 262.1h-198c14.2-101.4 50.2-192.3 99-262.1zM197.4 469.3h21.9c40.4-138.1 138.6-245.3 263.7-285.3-59.4 76.6-103.2 176-116.4 285.3H197.4z m0 85.4h169.2c13.2 109.3 57 208.7 116.4 285.3-125.1-40-223.3-147.2-263.7-285.3h-21.9z m314.6 285.3c-48.8-69.8-84.8-160.7-99-262.1h198c-14.2 101.4-50.2 192.3-99 262.1z m145.4-285.3h169.2h-21.9c-40.4 138.1-138.6 245.3-263.7 285.3 59.4-76.6 103.2-176 116.4-285.3z" fill="#ffffff"></path>
</svg>
